# xmcd
#
# Track frame offsets:
#	150
#	16965
#	25702
#	40150
#	57427
#	73075
#	104975
#	125712
#	144032
#	160227
#	181467
#	201815
#	218782
#	239252
#	255559
#	268590
#
# Disc length: 3926 seconds
#
# Revision: 1
# Processed by: cddbd v1.5.1PL0 Copyright (c) Steve Scherf et al.
# Submitted via: audiograbber 1.83.01
#
DISCID=ea0f5410
DTITLE=Various Artist - Bluegrass Forever
DYEAR=2000
DGENRE=Bluegrass
TTITLE0=David West - Till The Morning Comes
TTITLE1=Mark Thornton - The Fireman
TTITLE2=Brent Truitt - Paint It Black
TTITLE3=Kenny Blackwell - Babe I'm Gonna Leave You
TTITLE4=David West - Already Gone
TTITLE5=Butch Baldassari - Whipping Post
TTITLE6=Dennis Caplinger - Angel From Montgomery
TTITLE7=Brent Truitt - Sleeping Bag
TTITLE8=Mark Thornton - Wide Open Spaces
TTITLE9=David West - You Got Lucky
TTITLE10=Butch Baldassari - Melissa
TTITLE11=Dennis Caplinger - Song Remains The Same
TTITLE12=David West - Born To Run
TTITLE13=Brent Truitt - Small Town
TTITLE14=Mark Thornton - Annie's Song
TTITLE15=David West - Suite Judy Blue Eyes
EXTD=
EXTT0=
EXTT1=
EXTT2=
EXTT3=
EXTT4=
EXTT5=
EXTT6=
EXTT7=
EXTT8=
EXTT9=
EXTT10=
EXTT11=
EXTT12=
EXTT13=
EXTT14=
EXTT15=
PLAYORDER=
